<svg xmlns="http://www.w3.org/2000/svg" width="240" height="60" viewBox="0 0 240 60">
  <!-- Engranaje decorativo de fondo -->
  <g transform="translate(35, 30)" opacity="0.9">
    <!-- Círculo externo engranaje -->
    <circle cx="0" cy="0" r="22" fill="none" stroke="#3688b4" stroke-width="2"/>
    <!-- Dientes engranaje -->
    <path d="M0,-26 L0,-18 M13,-22.5 L9,-15.5 M22.5,-13 L15.5,-9 M26,0 L18,0 M22.5,13 L15.5,9 M13,22.5 L9,15.5 M0,26 L0,18 M-13,22.5 L-9,15.5 M-22.5,13 L-15.5,9 M-26,0 L-18,0 M-22.5,-13 L-15.5,-9 M-13,-22.5 L-9,-15.5" stroke="#3688b4" stroke-width="3" stroke-linecap="round"/>
    <!-- Mundo interno -->
    <circle cx="0" cy="0" r="12" fill="none" stroke="#3688b4" stroke-width="1.5"/>
    <path d="M-12,0 H12 M0,-12 V12" stroke="#3688b4" stroke-width="1"/>
    <ellipse cx="0" cy="0" rx="12" ry="6" fill="none" stroke="#3688b4" stroke-width="1" transform="rotate(-15)"/>
  </g>
  <!-- Texto outline -->
  <text x="145" y="42" fill="none" stroke="#3688b4" stroke-width="1.5" font-family="'Segoe UI', Tahoma, Geneva, Verdana, sans-serif" font-size="38" font-weight="800" text-anchor="middle" letter-spacing="1">RESMAG</text>
</svg>